<svg xmlns="http://www.w3.org/2000/svg" viewBox="0 0 84 71">
  <defs>
    <style>
      .publishing_svg-1 {
        fill: none;
        stroke: #4ebe9f;
        stroke-linecap: round;
        stroke-linejoin: round;
        stroke-width: 2.12px;
      }
    </style>
  </defs>
  <title>publishing</title>
  <g id="Layer_2" data-name="Layer 2">
    <g id="New_Site_Design" data-name="New Site Design">
      <g>
        <path class="publishing_svg-1" d="M68.86,29.66V66.21a4.26,4.26,0,0,1-4.24,4.24H5.3a4.26,4.26,0,0,1-4.24-4.24V19.6A4.26,4.26,0,0,1,5.3,15.36H54.54"/>
        <g>
          <circle class="publishing_svg-1" cx="68.86" cy="15.36" r="14.3"/>
          <g>
            <line class="publishing_svg-1" x1="68.86" y1="22.34" x2="68.86" y2="8.38"/>
            <polyline class="publishing_svg-1" points="63.33 13.91 68.86 8.38 74.39 13.91"/>
          </g>
        </g>
        <g>
          <line class="publishing_svg-1" x1="46.52" y1="33.65" x2="46.52" y2="50.58"/>
          <g>
            <path class="publishing_svg-1" d="M25,52.19A4.69,4.69,0,0,1,21.85,58a4.7,4.7,0,0,1-6.16-2.45,4.71,4.71,0,0,1,3.15-5.83A4.69,4.69,0,0,1,25,52.19Z"/>
            <path class="publishing_svg-1" d="M46.28,48.88a4.7,4.7,0,0,1-3.15,5.83A4.69,4.69,0,0,1,37,52.27a4.7,4.7,0,0,1,3.14-5.83A4.71,4.71,0,0,1,46.28,48.88Z"/>
            <polygon class="publishing_svg-1" points="46.52 33.65 25.29 36.95 25.29 30.76 46.52 27.46 46.52 33.65"/>
            <line class="publishing_svg-1" x1="25.29" y1="36.95" x2="25.29" y2="53.88"/>
          </g>
        </g>
      </g>
    </g>
  </g>
</svg>
